<svg id="Layer_1" data-name="Layer 1" xmlns="http://www.w3.org/2000/svg" viewBox="0 0 133 52.09"><defs><style>.cls-1{fill:none;}.cls-2{fill:#da1f27;}.cls-3{fill:#393d42;}.cls-4{fill:#fff;}</style></defs><rect class="cls-1" width="133" height="52.09"/><path class="cls-2" d="M15.29,33.31s-19-10.81,28.14-22A138.47,138.47,0,0,1,64.56,8.43c-8.77.18-22.31.9-33.41,3.49C11.45,16.51-1.13,27.09,15.29,33.31Z"/><path class="cls-2" d="M6.45,25.22s-1.21-7.71,25.15-14C31.6,11.17,1.67,14.61,6.45,25.22Z"/><path class="cls-2" d="M117.71,18.79s19,10.81-28.14,22a139.86,139.86,0,0,1-21.13,2.85c8.77-.17,22.31-.9,33.41-3.48C121.55,35.59,134.13,25,117.71,18.79Z"/><path class="cls-2" d="M126.55,26.87s1.21,7.71-25.15,14.05C101.4,40.92,131.33,37.49,126.55,26.87Z"/><path class="cls-3" d="M18.86,31.24H17.37V22.43h1.49Z"/><polygon class="cls-3" points="20.82 32.68 15.41 32.68 15.41 20.99 20.82 20.99 20.82 32.68 20.82 32.68"/><path class="cls-3" d="M30.61,30.71a7.46,7.46,0,0,1-1,.33c-.38.1-.79.18-1.21.25a8.66,8.66,0,0,1-1.22.09A7.28,7.28,0,0,1,24.85,31a6.35,6.35,0,0,1-1.92-1,4.7,4.7,0,0,1-1.28-1.48,3.59,3.59,0,0,1-.46-1.76A3.24,3.24,0,0,1,21.68,25,4.58,4.58,0,0,1,23,23.62a7.16,7.16,0,0,1,2-.94,8.59,8.59,0,0,1,2.4-.33,11.42,11.42,0,0,1,1.4.1,7.16,7.16,0,0,1,1.76.48v1.18l-.53-.21c-.28-.11-.53-.21-.75-.28a5.63,5.63,0,0,0-.79-.17,8.31,8.31,0,0,0-1.09-.07,6.65,6.65,0,0,0-1.81.25,5.21,5.21,0,0,0-1.5.72,3.43,3.43,0,0,0-1,1.09,2.6,2.6,0,0,0-.37,1.36,2.68,2.68,0,0,0,.36,1.35,3.79,3.79,0,0,0,1,1.13,5,5,0,0,0,1.53.76,6.22,6.22,0,0,0,1.85.27,5.77,5.77,0,0,0,1.33-.14,4.77,4.77,0,0,0,1-.35l.78-.38Z"/><path class="cls-3" d="M27.2,32.82a10,10,0,0,1-3.16-.5A8.39,8.39,0,0,1,21.5,31a6.34,6.34,0,0,1-1.67-1.93,4.66,4.66,0,0,1-.6-2.29,4.39,4.39,0,0,1,.66-2.32,6.26,6.26,0,0,1,1.8-1.87,9.24,9.24,0,0,1,2.63-1.23,11.11,11.11,0,0,1,3.13-.44,13,13,0,0,1,1.73.13,9.6,9.6,0,0,1,2.37.63l1,.41v4.35l-2.83-1-.61-.24a5.07,5.07,0,0,0-.59-.22,2.23,2.23,0,0,0-.38-.08,4.73,4.73,0,0,0-.71,0,3.76,3.76,0,0,0-1.08.15,3,3,0,0,0-.88.41,1.93,1.93,0,0,0-.58.63,1.53,1.53,0,0,0-.21.79,1.59,1.59,0,0,0,.21.8,2.15,2.15,0,0,0,.61.67,3.16,3.16,0,0,0,.9.45,3.88,3.88,0,0,0,1.09.15,3.07,3.07,0,0,0,.7-.06,2.59,2.59,0,0,0,.54-.19l.76-.37,3.06-1.53v4.82l-1,.41a10.37,10.37,0,0,1-1.3.44,13.54,13.54,0,0,1-1.49.3,11.26,11.26,0,0,1-1.61.13Z"/><path class="cls-3" d="M41.82,31.24H40.34V26.86H34.55v4.38h-1.4V22.43h1.4v3.49h5.79V22.43h1.48Z"/><polygon class="cls-3" points="43.78 32.68 38.38 32.68 38.38 28.29 36.51 28.29 36.51 32.68 31.19 32.68 31.19 20.99 36.51 20.99 36.51 24.49 38.38 24.49 38.38 20.99 43.78 20.99 43.78 32.68 43.78 32.68"/><path class="cls-3" d="M56.71,26.76a3.46,3.46,0,0,1-.31,1.31,4.71,4.71,0,0,1-1,1.52,5.59,5.59,0,0,1-2,1.26,8.51,8.51,0,0,1-3.14.5A7.37,7.37,0,0,1,47.88,31,6.25,6.25,0,0,1,46,30a4.77,4.77,0,0,1-1.28-1.46,3.53,3.53,0,0,1-.45-1.71,3.05,3.05,0,0,1,.35-1.28A5.26,5.26,0,0,1,45.69,24a6.13,6.13,0,0,1,2-1.23,8,8,0,0,1,2.89-.49,7.73,7.73,0,0,1,3.06.6,5.67,5.67,0,0,1,2.24,1.62A3.48,3.48,0,0,1,56.71,26.76Zm-1.48,0a2.62,2.62,0,0,0-.43-1.5,3.45,3.45,0,0,0-1.16-1,5.45,5.45,0,0,0-1.54-.61,6.92,6.92,0,0,0-1.59-.2,6.3,6.3,0,0,0-1.82.26,5.31,5.31,0,0,0-1.51.74,3.69,3.69,0,0,0-1,1.1,2.48,2.48,0,0,0-.37,1.31,3.1,3.1,0,0,0,.52,1.75,3.53,3.53,0,0,0,1.58,1.27,6.29,6.29,0,0,0,2.6.48,6.62,6.62,0,0,0,2-.28A4.39,4.39,0,0,0,54,29.22a3.31,3.31,0,0,0,.92-1.14A3.11,3.11,0,0,0,55.23,26.72Z"/><path class="cls-3" d="M50.2,32.79a9.75,9.75,0,0,1-3.12-.49A8.27,8.27,0,0,1,44.54,31a6.29,6.29,0,0,1-1.68-1.91,4.7,4.7,0,0,1-.59-2.25,4.27,4.27,0,0,1,.45-1.75,7.13,7.13,0,0,1,1.4-1.9,7.85,7.85,0,0,1,2.65-1.63,10.37,10.37,0,0,1,3.82-.66,10.18,10.18,0,0,1,4,.79,7.3,7.3,0,0,1,2.94,2.13,4.65,4.65,0,0,1,1.1,3,4.58,4.58,0,0,1-.39,1.72A6.21,6.21,0,0,1,57,30.42a7.54,7.54,0,0,1-2.71,1.7,11.28,11.28,0,0,1-4.06.67Zm.31-8a3.57,3.57,0,0,0-1.06.15,2.65,2.65,0,0,0-.89.44,2.21,2.21,0,0,0-.62.64,1.4,1.4,0,0,0-.2.74,2,2,0,0,0,.33,1.13,1.78,1.78,0,0,0,.83.67,3.87,3.87,0,0,0,1.58.27,4.27,4.27,0,0,0,1.26-.17,2.37,2.37,0,0,0,.81-.41,1.81,1.81,0,0,0,.53-.65,2,2,0,0,0,.19-.89,1.55,1.55,0,0,0-.23-.86,1.78,1.78,0,0,0-.6-.56,3.18,3.18,0,0,0-.94-.37,4.09,4.09,0,0,0-1-.13Z"/><path class="cls-3" d="M66.68,31.22H64.91l-3.66-3.75h-.59v3.75h-1.5V22.41h3.18a3.94,3.94,0,0,1,1.1.17,4.83,4.83,0,0,1,1.17.49,2.91,2.91,0,0,1,.9.8,1.78,1.78,0,0,1,.34,1.05,1.91,1.91,0,0,1-.4,1.25,2.76,2.76,0,0,1-.9.78,6.11,6.11,0,0,1-.9.38l-.57.14ZM64.4,24.85a1.16,1.16,0,0,0-.32-.82,2,2,0,0,0-.82-.51,3.8,3.8,0,0,0-1.06-.18H60.72v3.23H62.2a3.36,3.36,0,0,0,1.06-.16,1.75,1.75,0,0,0,.82-.56A1.54,1.54,0,0,0,64.4,24.85Z"/><path class="cls-3" d="M70.45,32.66H63.9l-1.28-1.31v1.31H57.2V21h5.14a7,7,0,0,1,1.79.26,7.2,7.2,0,0,1,1.71.72,4.69,4.69,0,0,1,1.4,1.24,3,3,0,0,1,.57,1.73,3.1,3.1,0,0,1-.65,2A4.65,4.65,0,0,1,66,28l4.5,4.69Z"/><path class="cls-4" d="M18.86,31.25H17.37V22.43h1.49Z"/><path class="cls-4" d="M30.61,30.71a7.46,7.46,0,0,1-1,.33c-.38.1-.79.18-1.21.25a8.66,8.66,0,0,1-1.22.09A7.28,7.28,0,0,1,24.85,31a6.35,6.35,0,0,1-1.92-1,4.7,4.7,0,0,1-1.28-1.48,3.56,3.56,0,0,1-.46-1.76A3.24,3.24,0,0,1,21.68,25,4.69,4.69,0,0,1,23,23.62a7.16,7.16,0,0,1,2-.94,8.59,8.59,0,0,1,2.4-.33,11.42,11.42,0,0,1,1.4.1,7.16,7.16,0,0,1,1.76.48v1.18l-.53-.21-.75-.27a5.52,5.52,0,0,0-.79-.18,8.49,8.49,0,0,0-1.09-.06,6.65,6.65,0,0,0-1.81.24,5.21,5.21,0,0,0-1.5.72,3.43,3.43,0,0,0-1,1.09,2.6,2.6,0,0,0-.37,1.36,2.68,2.68,0,0,0,.36,1.35,3.79,3.79,0,0,0,1,1.13,5,5,0,0,0,1.53.76,6.22,6.22,0,0,0,1.85.27,5.62,5.62,0,0,0,1.32-.14,4.66,4.66,0,0,0,1-.35l.78-.38Z"/><path class="cls-4" d="M41.82,31.25H40.34V26.86H34.55v4.39h-1.4V22.43h1.4v3.49h5.79V22.43h1.48Z"/><path class="cls-4" d="M56.71,26.76a3.55,3.55,0,0,1-.31,1.32,4.83,4.83,0,0,1-1,1.51,5.46,5.46,0,0,1-2,1.26,8.51,8.51,0,0,1-3.14.5A7.41,7.41,0,0,1,47.88,31,6.25,6.25,0,0,1,46,30a4.77,4.77,0,0,1-1.28-1.46,3.53,3.53,0,0,1-.45-1.71,3.05,3.05,0,0,1,.35-1.28A5.26,5.26,0,0,1,45.69,24a6.13,6.13,0,0,1,2-1.23,8,8,0,0,1,2.89-.49,7.73,7.73,0,0,1,3.06.6,5.67,5.67,0,0,1,2.24,1.62A3.48,3.48,0,0,1,56.71,26.76Zm-1.48,0a2.55,2.55,0,0,0-.44-1.5,3.33,3.33,0,0,0-1.15-1,5.45,5.45,0,0,0-1.54-.61,7,7,0,0,0-1.59-.2,6.3,6.3,0,0,0-1.82.26,5.31,5.31,0,0,0-1.51.74,3.69,3.69,0,0,0-1,1.1,2.48,2.48,0,0,0-.37,1.31,3.1,3.1,0,0,0,.52,1.75,3.53,3.53,0,0,0,1.58,1.27,6.29,6.29,0,0,0,2.6.48,7,7,0,0,0,2-.27A4.58,4.58,0,0,0,54,29.22a3.38,3.38,0,0,0,.92-1.13A3.19,3.19,0,0,0,55.23,26.72Z"/><path class="cls-4" d="M66.68,31.23H64.91l-3.66-3.76h-.59v3.76h-1.5V22.41h3.18a3.94,3.94,0,0,1,1.1.17,5,5,0,0,1,1.17.49,2.91,2.91,0,0,1,.9.8,1.79,1.79,0,0,1,.34,1.06,1.9,1.9,0,0,1-.4,1.24,2.76,2.76,0,0,1-.9.78,5.19,5.19,0,0,1-.9.38l-.57.14ZM64.4,24.85a1.16,1.16,0,0,0-.32-.82,2,2,0,0,0-.82-.51,3.86,3.86,0,0,0-1.06-.18H60.72v3.23H62.2a3.36,3.36,0,0,0,1.06-.16,1.75,1.75,0,0,0,.82-.56A1.54,1.54,0,0,0,64.4,24.85Z"/><path class="cls-4" d="M78.37,27.3a3.15,3.15,0,0,1-.27,1.16,4.33,4.33,0,0,1-.91,1.33,4.92,4.92,0,0,1-1.77,1.1,7.47,7.47,0,0,1-2.76.44,6.48,6.48,0,0,1-2-.31A5.59,5.59,0,0,1,69,30.14a4,4,0,0,1-1.12-1.28,3,3,0,0,1-.4-1.51,2.84,2.84,0,0,1,.3-1.12,4.71,4.71,0,0,1,1-1.31,5.06,5.06,0,0,1,1.76-1.08,7.42,7.42,0,0,1,5.22.09,4.93,4.93,0,0,1,2,1.42A3.06,3.06,0,0,1,78.37,27.3Zm-1.3,0A2.22,2.22,0,0,0,76.69,26a3,3,0,0,0-1-.93,5.27,5.27,0,0,0-1.35-.53,6.37,6.37,0,0,0-1.4-.17,5.51,5.51,0,0,0-1.59.23A4.38,4.38,0,0,0,70,25.2a3.3,3.3,0,0,0-.91,1,2.17,2.17,0,0,0-.32,1.15,2.8,2.8,0,0,0,.45,1.54A3.1,3.1,0,0,0,70.63,30a5.48,5.48,0,0,0,2.27.42,6,6,0,0,0,1.78-.24A3.92,3.92,0,0,0,76,29.46a2.9,2.9,0,0,0,.81-1A2.76,2.76,0,0,0,77.07,27.27Z"/><path class="cls-3" d="M72.66,32.77a9.11,9.11,0,0,1-2.83-.44,7.9,7.9,0,0,1-2.31-1.2A5.61,5.61,0,0,1,66,29.39a4.15,4.15,0,0,1-.54-2,3.78,3.78,0,0,1,.41-1.58,6,6,0,0,1,1.26-1.71,7,7,0,0,1,2.4-1.49A9.42,9.42,0,0,1,73,22a9.26,9.26,0,0,1,3.66.72,6.73,6.73,0,0,1,2.67,1.93A4,4,0,0,1,80,28.87a5.85,5.85,0,0,1-1.19,1.75,6.86,6.86,0,0,1-2.45,1.54,10.24,10.24,0,0,1-3.68.61Zm.27-7a2.73,2.73,0,0,0-.83.12,2.35,2.35,0,0,0-.71.35,1.65,1.65,0,0,0-.48.51,1.07,1.07,0,0,0-.16.57,1.6,1.6,0,0,0,.26.92,1.4,1.4,0,0,0,.64.51A3.09,3.09,0,0,0,72.9,29a3.26,3.26,0,0,0,1-.13,1.83,1.83,0,0,0,.64-.32A1.65,1.65,0,0,0,75,28a1.69,1.69,0,0,0,.15-.72,1.21,1.21,0,0,0-.18-.68,1.42,1.42,0,0,0-.45-.43,3,3,0,0,0-.75-.29,3.48,3.48,0,0,0-.8-.11Z"/><path class="cls-4" d="M89.55,31.33l-7.82-5.62v5.53H80.49V23.43l7.75,5.62V23.52h1.31Z"/><polygon class="cls-3" points="91.51 34.75 83.69 29.13 83.69 32.67 78.53 32.67 78.53 19.98 86.28 25.61 86.28 22.08 91.51 22.08 91.51 34.75 91.51 34.75"/><path class="cls-4" d="M93.42,31.24H92.11V23.51h1.31Z"/><polygon class="cls-3" points="95.38 32.67 90.15 32.67 90.15 22.07 95.38 22.07 95.38 32.67 95.38 32.67"/><path class="cls-4" d="M103.57,29.09a1.27,1.27,0,0,1-.26.69,3.25,3.25,0,0,1-.77.75,4.87,4.87,0,0,1-1.21.59,5.22,5.22,0,0,1-1.57.23,5,5,0,0,1-2-.38,3.08,3.08,0,0,1-1.34-1,2.49,2.49,0,0,1-.47-1.49V23.51h1.28V28.4a1.74,1.74,0,0,0,.17.74,2,2,0,0,0,.49.65,2.22,2.22,0,0,0,.78.45,3,3,0,0,0,1,.17,3.56,3.56,0,0,0,1.26-.23,2.83,2.83,0,0,0,1-.61,1.12,1.12,0,0,0,.36-.78V23.51h1.29Z"/><path class="cls-3" d="M99.76,32.78a7.53,7.53,0,0,1-3-.57,4.92,4.92,0,0,1-2.09-1.61A3.65,3.65,0,0,1,94,28.44V22.07h5.21V28.4a.55.55,0,0,0,.06.28.58.58,0,0,0,.15.21.45.45,0,0,0,.12.06.47.47,0,0,0,.17,0,1.07,1.07,0,0,0,.35-.06.79.79,0,0,0,.28-.17V22.07h5.21v7a2.36,2.36,0,0,1-.48,1.34,4.51,4.51,0,0,1-1.14,1.12,6.36,6.36,0,0,1-1.79.88,7.83,7.83,0,0,1-2.36.35Z"/><path class="cls-4" d="M116.32,31.23H115.2l-.18-.78-.39-1.66-.42-1.86c-.11-.44-.16-.67-.17-.68l-3.2,5-3-5-1.25,4.9h-1.17l2-7.76,3.51,5.66,3.59-5.68Z"/><polygon class="cls-3" points="110.81 34.72 108.57 31.09 108.17 32.66 102.99 32.66 106.62 18.75 110.92 25.68 115.35 18.66 118.65 32.66 113.54 32.66 113.16 31.02 110.81 34.72 110.81 34.72"/><path class="cls-4" d="M78.37,27.3a3.15,3.15,0,0,1-.27,1.16,4.33,4.33,0,0,1-.91,1.33,5.07,5.07,0,0,1-1.77,1.11,7.67,7.67,0,0,1-2.75.43,6.5,6.5,0,0,1-2-.31A5.37,5.37,0,0,1,69,30.14a4.09,4.09,0,0,1-1.12-1.28,3,3,0,0,1-.4-1.51,2.76,2.76,0,0,1,.31-1.12,4.47,4.47,0,0,1,1-1.31,5.06,5.06,0,0,1,1.76-1.08,7.42,7.42,0,0,1,5.22.09,5,5,0,0,1,2,1.42A3.06,3.06,0,0,1,78.37,27.3Zm-1.3,0A2.22,2.22,0,0,0,76.69,26a3,3,0,0,0-1-.93,5.27,5.27,0,0,0-1.35-.53,6.37,6.37,0,0,0-1.4-.17,5.51,5.51,0,0,0-1.59.23A4.5,4.5,0,0,0,70,25.2a3.3,3.3,0,0,0-.91,1,2.2,2.2,0,0,0-.32,1.15,2.77,2.77,0,0,0,.45,1.54A3.11,3.11,0,0,0,70.63,30a5.51,5.51,0,0,0,2.27.42,6,6,0,0,0,1.78-.25A3.92,3.92,0,0,0,76,29.46a2.9,2.9,0,0,0,.81-1A2.84,2.84,0,0,0,77.07,27.27Z"/><path class="cls-4" d="M89.55,31.33l-7.82-5.62v5.53H80.49V23.43l7.75,5.62V23.52h1.31Z"/><path class="cls-4" d="M93.42,31.24H92.11V23.51h1.31Z"/><path class="cls-4" d="M103.57,29.09a1.26,1.26,0,0,1-.27.7,3.36,3.36,0,0,1-.76.74,4.55,4.55,0,0,1-1.21.59,5.22,5.22,0,0,1-1.57.23,5,5,0,0,1-2-.38,3.07,3.07,0,0,1-1.34-1,2.54,2.54,0,0,1-.47-1.49V23.51h1.28V28.4a1.74,1.74,0,0,0,.17.74,2,2,0,0,0,.49.65,2.24,2.24,0,0,0,.78.46,3.32,3.32,0,0,0,1,.16,3.56,3.56,0,0,0,1.26-.23,2.69,2.69,0,0,0,1-.61,1.1,1.1,0,0,0,.37-.78V23.51h1.29Z"/><path class="cls-4" d="M116.32,31.23H115.2l-.18-.77c-.07-.31-.2-.87-.39-1.67s-.32-1.42-.43-1.86-.16-.67-.16-.68l-3.2,5-3-5-1.25,4.9h-1.18l2-7.76,3.52,5.66,3.59-5.68Z"/><path class="cls-4" d="M19.42,17.62c0-.63-.7-1.14-1.55-1.14s-1.56.51-1.56,1.14.7,1.13,1.56,1.13S19.42,18.24,19.42,17.62Z"/><path class="cls-3" d="M17.87,20.19c-1.94,0-3.52-1.16-3.52-2.57S15.93,15,17.87,15s3.51,1.16,3.51,2.58-1.58,2.57-3.51,2.57Zm0-2.87c-.23,0-.41.13-.41.3s.18.29.41.29.4-.13.4-.29-.18-.3-.4-.3Z"/><path class="cls-4" d="M19.42,17.62c0-.63-.7-1.14-1.55-1.14s-1.56.51-1.56,1.14.7,1.13,1.56,1.13S19.42,18.24,19.42,17.62Z"/></svg>